<svg width="27" height="33" viewBox="0 0 27 33" fill="none" xmlns="http://www.w3.org/2000/svg">
<path d="M14.0087 31.4266C20.2481 29.2516 25.4976 25.5015 25.4976 18.0012V7.50087C25.4976 7.10303 25.3396 6.72149 25.0583 6.44017C24.777 6.15886 24.3955 6.00082 23.9978 6.00082C20.9981 6.00082 17.2634 4.21576 14.6387 1.92069C14.3209 1.64918 13.9167 1.5 13.4988 1.5C13.0809 1.5 12.6767 1.64918 12.3589 1.92069C9.74918 4.20076 5.99955 6.00082 2.99985 6.00082C2.60207 6.00082 2.22057 6.15886 1.9393 6.44017C1.65802 6.72149 1.5 7.10303 1.5 7.50087V18.0012C1.5 25.5015 6.74948 29.2516 13.0038 31.4116C13.3271 31.5321 13.682 31.5374 14.0087 31.4266Z" stroke="#F05D27" stroke-width="3" stroke-linecap="round"/>
</svg>
